<?xml version="1.0" encoding="UTF-8" standalone="no"?>
<svg
   height="132.12466"
   style="clip-rule:evenodd;fill-rule:evenodd;stroke-linejoin:round;stroke-miterlimit:2"
   version="1.1"
   viewBox="0 0 525.48395 132.12466"
   width="525.48395"
   xml:space="preserve"
   id="svg22"
   sodipodi:docname="5296522_youtube_youtube logo_icon.svg"
   inkscape:version="1.2.2 (b0a8486541, 2022-12-01)"
   xmlns:inkscape="http://www.inkscape.org/namespaces/inkscape"
   xmlns:sodipodi="http://sodipodi.sourceforge.net/DTD/sodipodi-0.dtd"
   xmlns="http://www.w3.org/2000/svg"
   xmlns:svg="http://www.w3.org/2000/svg"><defs
     id="defs26" /><sodipodi:namedview
     id="namedview24"
     pagecolor="#ffffff"
     bordercolor="#000000"
     borderopacity="0.25"
     inkscape:showpageshadow="2"
     inkscape:pageopacity="0.0"
     inkscape:pagecheckerboard="0"
     inkscape:deskcolor="#d1d1d1"
     showgrid="false"
     inkscape:zoom="1.1228082"
     inkscape:cx="126.46861"
     inkscape:cy="33.843713"
     inkscape:window-width="1920"
     inkscape:window-height="988"
     inkscape:window-x="0"
     inkscape:window-y="0"
     inkscape:window-maximized="1"
     inkscape:current-layer="svg22" /><g
     id="g20"
     transform="translate(4.5783642,-189.93767)"
     inkscape:export-filename="g20.svg"
     inkscape:export-xdpi="96"
     inkscape:export-ydpi="96"><path
       d="m 159.874,216.698 c -1.878,-7.026 -7.41,-12.558 -14.436,-14.436 -12.735,-3.412 -63.796,-3.412 -63.796,-3.412 0,0 -51.061,0 -63.796,3.412 -7.025,1.878 -12.558,7.41 -14.436,14.436 -3.411,12.734 -3.411,39.303 -3.411,39.303 0,0 0,26.568 3.411,39.301 1.878,7.026 7.411,12.559 14.436,14.437 12.735,3.411 63.796,3.411 63.796,3.411 0,0 51.061,0 63.796,-3.411 7.026,-1.878 12.558,-7.411 14.436,-14.437 3.413,-12.733 3.413,-39.301 3.413,-39.301 0,0 0,-26.569 -3.413,-39.303 z"
       style="fill:#ed1f24;fill-rule:nonzero"
       id="path2" /><path
       d="M 65.313,280.494 107.735,256.001 65.313,231.507 Z"
       style="fill:#ffffff;fill-rule:nonzero"
       id="path4" /><path
       d="m 255.11,291.623 c 0.894,-2.333 1.343,-6.148 1.343,-11.442 v -22.304 c 0,-5.137 -0.449,-8.893 -1.343,-11.268 -0.895,-2.373 -2.472,-3.561 -4.728,-3.561 -2.18,0 -3.719,1.188 -4.613,3.561 -0.895,2.375 -1.343,6.131 -1.343,11.268 v 22.304 c 0,5.294 0.427,9.109 1.285,11.442 0.855,2.336 2.411,3.503 4.671,3.503 2.256,0 3.833,-1.167 4.728,-3.503 z m -18.098,11.211 c -3.233,-2.177 -5.53,-5.565 -6.89,-10.16 -1.363,-4.591 -2.043,-10.703 -2.043,-18.332 V 263.95 c 0,-7.707 0.777,-13.897 2.335,-18.566 1.556,-4.671 3.988,-8.077 7.298,-10.218 3.308,-2.14 7.648,-3.211 13.02,-3.211 5.294,0 9.536,1.09 12.728,3.27 3.191,2.179 5.527,5.586 7.007,10.216 1.477,4.634 2.217,10.802 2.217,18.509 v 10.392 c 0,7.629 -0.72,13.761 -2.16,18.392 -1.441,4.633 -3.777,8.018 -7.006,10.158 -3.232,2.141 -7.609,3.211 -13.136,3.211 -5.685,0 -10.142,-1.09 -13.37,-3.269 z"
       style="fill:#272727;fill-rule:nonzero"
       id="path6" /><path
       d="m 487.068,244.385 c -0.816,1.013 -1.363,2.667 -1.634,4.962 -0.274,2.297 -0.407,5.781 -0.407,10.452 v 5.139 h 11.791 v -5.139 c 0,-4.593 -0.156,-8.077 -0.466,-10.452 -0.312,-2.373 -0.875,-4.045 -1.692,-5.02 -0.819,-0.973 -2.084,-1.46 -3.796,-1.46 -1.714,0 -2.978,0.507 -3.796,1.518 z m -2.041,30.128 v 3.62 c 0,4.594 0.133,8.037 0.407,10.333 0.271,2.297 0.835,3.972 1.693,5.023 0.857,1.05 2.178,1.577 3.971,1.577 2.411,0 4.067,-0.936 4.962,-2.804 0.894,-1.868 1.381,-4.981 1.459,-9.342 l 13.896,0.818 c 0.078,0.625 0.117,1.479 0.117,2.568 0,6.618 -1.809,11.562 -5.43,14.831 -3.618,3.269 -8.739,4.905 -15.355,4.905 -7.94,0 -13.507,-2.491 -16.698,-7.475 -3.193,-4.98 -4.789,-12.687 -4.789,-23.12 v -12.496 c 0,-10.742 1.655,-18.584 4.964,-23.528 3.308,-4.944 8.972,-7.416 16.991,-7.416 5.525,0 9.769,1.012 12.727,3.036 2.957,2.026 5.04,5.178 6.247,9.459 1.207,4.282 1.811,10.199 1.811,17.749 v 12.262 z"
       style="fill:#272727;fill-rule:nonzero"
       id="path8" /><path
       d="m 197.772,273.172 -18.333,-66.209 h 15.997 l 6.422,30.009 c 1.636,7.398 2.842,13.703 3.62,18.917 h 0.468 c 0.544,-3.736 1.751,-10.001 3.619,-18.8 l 6.656,-30.126 h 15.998 l -18.566,66.209 v 31.763 h -15.881 z"
       style="fill:#272727;fill-rule:nonzero"
       id="path10" /><path
       d="m 324.714,233.355 v 71.58 h -12.611 l -1.402,-8.756 h -0.35 c -3.426,6.617 -8.564,9.924 -15.414,9.924 -4.748,0 -8.251,-1.556 -10.509,-4.67 -2.258,-3.113 -3.386,-7.98 -3.386,-14.596 v -53.482 h 16.114 v 52.547 c 0,3.193 0.351,5.47 1.051,6.83 0.701,1.364 1.869,2.045 3.503,2.045 1.402,0 2.745,-0.428 4.028,-1.285 1.285,-0.857 2.238,-1.945 2.862,-3.269 v -56.868 z"
       style="fill:#272727;fill-rule:nonzero"
       id="path12" /><path
       d="m 407.371,233.355 v 71.58 H 394.76 l -1.402,-8.756 h -0.348 c -3.429,6.617 -8.566,9.924 -15.416,9.924 -4.749,0 -8.251,-1.556 -10.509,-4.67 -2.259,-3.113 -3.386,-7.98 -3.386,-14.596 v -53.482 h 16.114 v 52.547 c 0,3.193 0.35,5.47 1.05,6.83 0.702,1.364 1.87,2.045 3.504,2.045 1.402,0 2.745,-0.428 4.028,-1.285 1.285,-0.857 2.238,-1.945 2.862,-3.269 v -56.868 z"
       style="fill:#272727;fill-rule:nonzero"
       id="path14" /><path
       d="m 368.503,219.926 h -15.998 v 85.009 h -15.764 v -85.009 h -15.997 v -12.962 h 47.759 z"
       style="fill:#272727;fill-rule:nonzero"
       id="path16" /><path
       d="m 445.933,273.995 c 0,5.217 -0.216,9.304 -0.643,12.261 -0.428,2.96 -1.148,5.062 -2.16,6.306 -1.012,1.246 -2.377,1.868 -4.086,1.868 -1.326,0 -2.552,-0.311 -3.679,-0.934 -1.131,-0.623 -2.043,-1.557 -2.745,-2.803 v -40.636 c 0.545,-1.945 1.479,-3.542 2.803,-4.788 1.324,-1.243 2.762,-1.868 4.32,-1.868 1.635,0 2.899,0.643 3.795,1.926 0.894,1.285 1.518,3.445 1.869,6.483 0.35,3.035 0.526,7.355 0.526,12.96 z m 14.771,-29.197 c -0.975,-4.514 -2.551,-7.784 -4.73,-9.81 -2.18,-2.023 -5.178,-3.035 -8.991,-3.035 -2.958,0 -5.722,0.838 -8.29,2.511 -2.569,1.674 -4.555,3.873 -5.956,6.597 h -0.118 l 10e-4,-37.717 h -15.53 v 101.59 h 13.311 l 1.636,-6.772 h 0.349 c 1.245,2.413 3.113,4.32 5.605,5.722 2.491,1.401 5.256,2.102 8.292,2.102 5.448,0 9.457,-2.512 12.027,-7.532 2.569,-5.021 3.853,-12.863 3.853,-23.53 v -11.325 c 0,-8.018 -0.487,-14.285 -1.459,-18.801 z"
       style="fill:#272727;fill-rule:nonzero"
       id="path18" /></g></svg>
