<?xml version="1.0" encoding="UTF-8" standalone="no"?>
<svg
   enable-background="new 0 0 32 32"
   height="32px"
   id="Layer_1"
   version="1.0"
   viewBox="0 0 32 32"
   width="32px"
   xml:space="preserve"
   sodipodi:docname="facebookIcon.svg"
   inkscape:version="1.2.2 (b0a8486541, 2022-12-01)"
   xmlns:inkscape="http://www.inkscape.org/namespaces/inkscape"
   xmlns:sodipodi="http://sodipodi.sourceforge.net/DTD/sodipodi-0.dtd"
   xmlns="http://www.w3.org/2000/svg"
   xmlns:svg="http://www.w3.org/2000/svg"><defs
     id="defs724" /><sodipodi:namedview
     id="namedview722"
     pagecolor="#ffffff"
     bordercolor="#000000"
     borderopacity="0.25"
     inkscape:showpageshadow="2"
     inkscape:pageopacity="0.0"
     inkscape:pagecheckerboard="0"
     inkscape:deskcolor="#d1d1d1"
     showgrid="false"
     inkscape:zoom="25.40625"
     inkscape:cx="15.98032"
     inkscape:cy="16.01968"
     inkscape:window-width="1920"
     inkscape:window-height="988"
     inkscape:window-x="0"
     inkscape:window-y="0"
     inkscape:window-maximized="1"
     inkscape:current-layer="Layer_1" /><g
     id="g707"><path
       d="M32,30c0,1.104-0.896,2-2,2H2c-1.104,0-2-0.896-2-2V2c0-1.104,0.896-2,2-2h28c1.104,0,2,0.896,2,2V30z"
       fill="#3B5998"
       id="path704"
       style="fill:#ffffff" /><path
       d="M22,32V20h4l1-5h-5v-2c0-2,1.002-3,3-3h2V5c-1,0-2.24,0-4,0c-3.675,0-6,2.881-6,7v3h-4v5h4v12H22z"
       fill="#FFFFFF"
       id="f"
       style="fill:#000000" /></g><g
     id="g709" /><g
     id="g711" /><g
     id="g713" /><g
     id="g715" /><g
     id="g717" /><g
     id="g719" /></svg>
