<?xml version="1.0" encoding="UTF-8" standalone="no"?>
<svg
   enable-background="new 0 0 24 24"
   height="24"
   id="Layer_1"
   version="1.1"
   viewBox="0 0 24 24"
   width="24"
   xml:space="preserve"
   sodipodi:docname="themePaletteIcon.svg"
   inkscape:version="1.2.2 (b0a8486541, 2022-12-01)"
   xmlns:inkscape="http://www.inkscape.org/namespaces/inkscape"
   xmlns:sodipodi="http://sodipodi.sourceforge.net/DTD/sodipodi-0.dtd"
   xmlns="http://www.w3.org/2000/svg"
   xmlns:svg="http://www.w3.org/2000/svg"><defs
     id="defs11" /><sodipodi:namedview
     id="namedview9"
     pagecolor="#ffffff"
     bordercolor="#000000"
     borderopacity="0.25"
     inkscape:showpageshadow="2"
     inkscape:pageopacity="0.0"
     inkscape:pagecheckerboard="0"
     inkscape:deskcolor="#d1d1d1"
     showgrid="false"
     inkscape:zoom="33.875"
     inkscape:cx="12.01476"
     inkscape:cy="12.01476"
     inkscape:window-width="1920"
     inkscape:window-height="988"
     inkscape:window-x="0"
     inkscape:window-y="0"
     inkscape:window-maximized="1"
     inkscape:current-layer="Layer_1" /><g
     id="g6"><path
       d="m 23.4,14.1 c 0.2,-0.3 0.3,-0.7 0.1,-1.1 l -4,-6.9 C 19.3,5.7 18.9,5.6 18.5,5.6 18.5,5.7 18.4,5.8 18.4,6 18.7,5.5 18.5,4.9 18,4.6 l -6.9,-4 C 10.7,0.4 10.3,0.4 10,0.7 9.8,0.3 9.4,0 9,0 H 1 C 0.4,0 0,0.4 0,1 v 22 c 0,0.6 0.4,1 1,1 H 6.3 9 23 c 0.6,0 1,-0.4 1,-1 v -8 c 0,-0.4 -0.3,-0.8 -0.6,-0.9 z m -5.2,-6.2 3,5.2 -10.6,6.1 -0.6,1.1 v 0 L 16.7,8.8 Z M 10.9,2.8 16.1,5.8 10,16.3 V 4.3 Z M 2,22 V 2 H 8 V 22 Z M 20.2,16 H 22 v 6 H 10 v -0.1 l 13.1,-7.6 z"
       id="path2"
       style="fill:#ffffff" /><path
       d="m 5,17 c -1.1,0 -2,0.9 -2,2 0,1.1 0.9,2 2,2 1.1,0 2,-0.9 2,-2 0,-1.1 -0.9,-2 -2,-2 z m 0,3 c -0.6,0 -1,-0.4 -1,-1 0,-0.6 0.4,-1 1,-1 0.6,0 1,0.4 1,1 0,0.6 -0.4,1 -1,1 z"
       id="path4"
       style="fill:#ffffff" /></g></svg>
